<svg width="24" height="24" viewBox="0 0 24 24" fill="none" xmlns="http://www.w3.org/2000/svg">
<path d="M12 7.875C11.1842 7.875 10.3866 8.11693 9.70827 8.57019C9.02992 9.02345 8.50121 9.66769 8.189 10.4214C7.87679 11.1752 7.7951 12.0046 7.95426 12.8047C8.11343 13.6049 8.50629 14.3399 9.08318 14.9168C9.66008 15.4937 10.3951 15.8866 11.1953 16.0457C11.9954 16.2049 12.8248 16.1232 13.5786 15.811C14.3323 15.4988 14.9766 14.9701 15.4298 14.2917C15.8831 13.6134 16.125 12.8158 16.125 12C16.1238 10.9064 15.6888 9.85787 14.9154 9.08455C14.1421 8.31124 13.0936 7.87624 12 7.875ZM12 15.375C11.3325 15.375 10.68 15.1771 10.125 14.8062C9.56993 14.4354 9.13735 13.9083 8.88191 13.2916C8.62646 12.6749 8.55962 11.9963 8.68985 11.3416C8.82007 10.6869 9.14151 10.0855 9.61351 9.61351C10.0855 9.14151 10.6869 8.82007 11.3416 8.68985C11.9963 8.55962 12.6749 8.62646 13.2916 8.88191C13.9083 9.13735 14.4354 9.56993 14.8062 10.125C15.1771 10.68 15.375 11.3325 15.375 12C15.374 12.8948 15.0181 13.7527 14.3854 14.3854C13.7527 15.0181 12.8948 15.374 12 15.375ZM16.125 3H7.875C6.58252 3.00146 5.34339 3.51555 4.42947 4.42947C3.51555 5.34339 3.00146 6.58252 3 7.875V16.125C3.00146 17.4175 3.51555 18.6566 4.42947 19.5705C5.34339 20.4845 6.58252 20.9985 7.875 21H16.125C17.4175 20.9985 18.6566 20.4845 19.5705 19.5705C20.4845 18.6566 20.9985 17.4175 21 16.125V7.875C20.9985 6.58252 20.4845 5.34339 19.5705 4.42947C18.6566 3.51555 17.4175 3.00146 16.125 3ZM20.25 16.125C20.2488 17.2186 19.8138 18.2671 19.0404 19.0404C18.2671 19.8138 17.2186 20.2488 16.125 20.25H7.875C6.78136 20.2488 5.73287 19.8138 4.95955 19.0404C4.18624 18.2671 3.75124 17.2186 3.75 16.125V7.875C3.75124 6.78136 4.18624 5.73287 4.95955 4.95955C5.73287 4.18624 6.78136 3.75124 7.875 3.75H16.125C17.2186 3.75124 18.2671 4.18624 19.0404 4.95955C19.8138 5.73287 20.2488 6.78136 20.25 7.875V16.125ZM17.625 7.125C17.625 7.27334 17.581 7.41834 17.4986 7.54168C17.4162 7.66501 17.2991 7.76114 17.162 7.81791C17.025 7.87468 16.8742 7.88953 16.7287 7.86059C16.5832 7.83165 16.4496 7.76022 16.3447 7.65533C16.2398 7.55044 16.1684 7.4168 16.1394 7.27132C16.1105 7.12583 16.1253 6.97503 16.1821 6.83799C16.2389 6.70094 16.335 6.58381 16.4583 6.5014C16.5817 6.41899 16.7267 6.375 16.875 6.375C17.0738 6.37525 17.2645 6.45435 17.4051 6.59494C17.5457 6.73554 17.6248 6.92616 17.625 7.125Z" fill="black" fill-opacity="0.8"/>
</svg>
