<svg width="36" height="36" viewBox="0 0 36 36" fill="none" xmlns="http://www.w3.org/2000/svg">
<path d="M30.375 5.90625H5.625C5.10304 5.90685 4.60262 6.11446 4.23354 6.48354C3.86446 6.85262 3.65685 7.35304 3.65625 7.875V28.125C3.65685 28.647 3.86446 29.1474 4.23354 29.5165C4.60262 29.8855 5.10304 30.0932 5.625 30.0938H30.375C30.897 30.0932 31.3974 29.8855 31.7665 29.5165C32.1355 29.1474 32.3432 28.647 32.3438 28.125V7.875C32.3432 7.35304 32.1355 6.85262 31.7665 6.48354C31.3974 6.11446 30.897 5.90685 30.375 5.90625ZM30.6562 28.125C30.6561 28.1996 30.6265 28.271 30.5737 28.3237C30.521 28.3765 30.4496 28.4061 30.375 28.4062H5.625C5.55044 28.4061 5.47897 28.3765 5.42625 28.3237C5.37353 28.271 5.34386 28.1996 5.34375 28.125V7.875C5.34386 7.80044 5.37353 7.72897 5.42625 7.67625C5.47897 7.62353 5.55044 7.59386 5.625 7.59375H30.375C30.4496 7.59386 30.521 7.62353 30.5737 7.67625C30.6265 7.72897 30.6561 7.80044 30.6562 7.875V28.125ZM24.4688 12.375C24.4688 14.0906 23.7872 15.736 22.5741 16.9491C21.361 18.1622 19.7156 18.8438 18 18.8438C16.2844 18.8438 14.639 18.1622 13.4259 16.9491C12.2128 15.736 11.5312 14.0906 11.5312 12.375C11.5312 12.1512 11.6201 11.9366 11.7784 11.7784C11.9366 11.6201 12.1512 11.5312 12.375 11.5312C12.5988 11.5312 12.8134 11.6201 12.9716 11.7784C13.1299 11.9366 13.2188 12.1512 13.2188 12.375C13.2188 13.6431 13.7225 14.8592 14.6191 15.7559C15.5158 16.6525 16.7319 17.1562 18 17.1562C19.2681 17.1562 20.4842 16.6525 21.3809 15.7559C22.2775 14.8592 22.7812 13.6431 22.7812 12.375C22.7812 12.1512 22.8701 11.9366 23.0284 11.7784C23.1866 11.6201 23.4012 11.5312 23.625 11.5312C23.8488 11.5312 24.0634 11.6201 24.2216 11.7784C24.3799 11.9366 24.4688 12.1512 24.4688 12.375Z" fill="#1D1D1D"/>
</svg>
