<svg width="647" height="897" viewBox="0 0 647 897" fill="none" xmlns="http://www.w3.org/2000/svg">
<path d="M184.187 896.699C275.564 875.402 358.574 827.487 422.719 759.013C486.864 690.539 529.264 604.582 544.557 512.01C559.85 419.439 547.348 324.412 508.634 238.945C469.92 153.479 406.731 81.4121 327.059 31.858L326.307 33.0665C405.74 82.472 468.739 154.323 507.338 239.533C545.936 324.743 558.4 419.485 543.153 511.778C527.906 604.072 485.633 689.772 421.68 758.04C357.728 826.309 274.967 874.08 183.864 895.313L184.187 896.699Z" fill="#565656"/>
<path d="M184.187 896.699C275.564 875.402 358.574 827.487 422.719 759.013C486.864 690.539 529.264 604.582 544.557 512.01C559.85 419.439 547.348 324.412 508.634 238.945C469.92 153.479 406.731 81.4121 327.059 31.858L326.307 33.0665C405.74 82.472 468.739 154.323 507.338 239.533C545.936 324.743 558.4 419.485 543.153 511.778C527.906 604.072 485.633 689.772 421.68 758.04C357.728 826.309 274.967 874.08 183.864 895.313L184.187 896.699Z" fill="url(#paint0_linear)"/>
<path d="M184.187 896.699C275.564 875.402 358.574 827.487 422.719 759.013C486.864 690.539 529.264 604.582 544.557 512.01C559.85 419.439 547.348 324.412 508.634 238.945C469.92 153.479 406.731 81.4121 327.059 31.858L326.307 33.0665C405.74 82.472 468.739 154.323 507.338 239.533C545.936 324.743 558.4 419.485 543.153 511.778C527.906 604.072 485.633 689.772 421.68 758.04C357.728 826.309 274.967 874.08 183.864 895.313L184.187 896.699Z" fill="url(#paint1_linear)"/>
<defs>
<linearGradient id="paint0_linear" x1="234" y1="435.188" x2="686" y2="435.188" gradientUnits="userSpaceOnUse">
<stop stop-color="white"/>
<stop offset="1" stop-color="white" stop-opacity="0"/>
</linearGradient>
<linearGradient id="paint1_linear" x1="556.5" y1="-148.312" x2="389" y2="128.688" gradientUnits="userSpaceOnUse">
<stop stop-color="white"/>
<stop offset="1" stop-color="white" stop-opacity="0"/>
</linearGradient>
</defs>
</svg>
