<svg width="22" height="22" viewBox="0 0 22 22" fill="none" xmlns="http://www.w3.org/2000/svg">
<g clip-path="url(#clip0)">
<path d="M10.9996 -0.0234375C4.92146 -0.0234375 -0.0244141 4.92106 -0.0244141 10.9999C-0.0244141 17.0788 4.92146 22.0233 10.9996 22.0233C17.0778 22.0233 22.0237 17.0788 22.0237 10.9999C22.0237 4.92106 17.0778 -0.0234375 10.9996 -0.0234375ZM10.9996 21.2891C5.3264 21.2891 0.711211 16.6732 0.711211 10.9999C0.711211 5.32669 5.3264 0.710813 10.9996 0.710813C16.6729 0.710813 21.2881 5.32669 21.2881 10.9999C21.2881 16.6732 16.6729 21.2891 10.9996 21.2891Z" fill="black" fill-opacity="0.8"/>
<path d="M13.406 4.81241H11.5718C9.23564 4.78903 8.93726 6.23484 8.93726 7.79959V8.93741H7.90601C7.8594 8.93118 7.81198 8.93578 7.76744 8.95086C7.7229 8.96593 7.68243 8.99107 7.64918 9.02432C7.61593 9.05757 7.59079 9.09804 7.57571 9.14258C7.56064 9.18713 7.55604 9.23454 7.56226 9.28116V11.3437C7.55604 11.3903 7.56064 11.4377 7.57571 11.4822C7.59079 11.5268 7.61593 11.5672 7.64918 11.6005C7.68243 11.6337 7.7229 11.6589 7.76744 11.674C7.81198 11.689 7.8594 11.6936 7.90601 11.6874H8.93726V16.8437C8.93153 16.8904 8.93655 16.9377 8.95194 16.9822C8.96732 17.0267 8.99267 17.067 9.02603 17.1002C9.0594 17.1333 9.0999 17.1584 9.14445 17.1736C9.189 17.1887 9.23642 17.1934 9.28308 17.1874H11.3834C11.5862 17.2108 11.7505 17.0465 11.6859 16.8437L11.6873 11.6874H13.406C13.4526 11.6936 13.5 11.689 13.5446 11.674C13.5891 11.6589 13.6296 11.6337 13.6628 11.6005C13.6961 11.5672 13.7212 11.5268 13.7363 11.4822C13.7514 11.4377 13.756 11.3903 13.7498 11.3437V9.28116C13.756 9.23454 13.7514 9.18713 13.7363 9.14258C13.7212 9.09804 13.6961 9.05757 13.6628 9.02432C13.6296 8.99107 13.5891 8.96593 13.5446 8.95086C13.5 8.93578 13.4526 8.93118 13.406 8.93741H11.6852L11.6873 7.90616C11.754 7.46684 11.754 7.53834 12.1616 7.56241H13.3916C13.4871 7.54109 13.5889 7.55278 13.6604 7.48334C13.7319 7.41391 13.7731 7.31903 13.7491 7.21866V5.15616C13.7554 5.10958 13.7509 5.06217 13.7359 5.01762C13.721 4.97307 13.6959 4.93258 13.6627 4.89931C13.6295 4.86604 13.589 4.84089 13.5445 4.82582C13.5 4.81074 13.4526 4.80615 13.406 4.81241ZM13.0382 6.83641L12.1761 6.80341C11.1084 6.80341 11.019 7.38297 11.019 7.97628L11.0163 9.27978C11.0162 9.32805 11.0256 9.37586 11.044 9.42048C11.0624 9.46511 11.0894 9.50566 11.1235 9.53982C11.1576 9.57399 11.1982 9.60109 11.2427 9.61958C11.2873 9.63807 11.3351 9.64759 11.3834 9.64759H13.0623V10.9758H11.3848C11.2873 10.9758 11.1939 11.0145 11.1249 11.0833C11.056 11.1522 11.0171 11.2455 11.017 11.343L11.0163 16.4999H9.62476V11.3437C9.62476 11.1408 9.48658 10.9765 9.28308 10.9765H8.24976V9.64828H9.28308C9.33132 9.64835 9.3791 9.63892 9.42369 9.62052C9.46828 9.60211 9.5088 9.5751 9.54295 9.54103C9.6117 9.47159 9.62408 9.37809 9.62408 9.28047V7.79891C9.62408 6.25753 9.93551 5.52328 11.5711 5.52328H13.0375V6.83641H13.0382Z" fill="black" fill-opacity="0.8"/>
</g>
<defs>
<clipPath id="clip0">
<rect width="22" height="22" fill="white"/>
</clipPath>
</defs>
</svg>
