<svg width="22" height="22" viewBox="0 0 22 22" fill="none" xmlns="http://www.w3.org/2000/svg">
<g clip-path="url(#clip0)">
<path d="M10.9996 -0.0233154C4.92146 -0.0233154 -0.0244141 4.92119 -0.0244141 11.0001C-0.0244141 17.0789 4.92146 22.0234 10.9996 22.0234C17.0778 22.0234 22.0237 17.0789 22.0237 11.0001C22.0237 4.92119 17.0778 -0.0233154 10.9996 -0.0233154ZM10.9996 21.2892C5.3264 21.2892 0.711211 16.6733 0.711211 11.0001C0.711211 5.32681 5.3264 0.710935 10.9996 0.710935C16.6729 0.710935 21.2881 5.32681 21.2881 11.0001C21.2881 16.6733 16.6729 21.2892 10.9996 21.2892Z" fill="black" fill-opacity="0.8"/>
<path d="M17.0457 7.59418C17.122 7.45303 17.1848 7.30502 17.2334 7.15212C17.2559 7.0812 17.2564 7.00512 17.2347 6.93393C17.2131 6.86274 17.1703 6.79979 17.1122 6.75339C17.054 6.70699 16.9831 6.67933 16.9089 6.67405C16.8347 6.66876 16.7606 6.68612 16.6965 6.72381C16.3442 6.93309 15.9628 7.08901 15.5649 7.1865C15.0817 6.75047 14.4543 6.50874 13.8035 6.50793C13.4499 6.50821 13.1 6.57987 12.7748 6.71863C12.4496 6.85738 12.1558 7.06038 11.9109 7.31544C11.6661 7.57051 11.4752 7.87238 11.3499 8.20298C11.2245 8.53358 11.1672 8.88609 11.1814 9.23937C9.63518 9.04473 8.22327 8.26233 7.23854 7.0545C7.20081 7.00874 7.1526 6.97276 7.09799 6.94963C7.04338 6.92649 6.98399 6.91687 6.92487 6.9216C6.86576 6.92632 6.80865 6.94525 6.75841 6.97676C6.70817 7.00828 6.66628 7.05145 6.63629 7.10262C6.41081 7.48963 6.28825 7.92797 6.28031 8.3758C6.27236 8.82364 6.3793 9.26605 6.59092 9.66081C6.53902 9.66957 6.48916 9.68774 6.44379 9.71444C6.38821 9.74988 6.34244 9.79876 6.31072 9.85655C6.279 9.91434 6.26234 9.9792 6.26229 10.0451C6.26229 10.8254 6.60948 11.5418 7.16911 12.0286L7.14504 12.0526C7.10279 12.1004 7.07373 12.1584 7.06071 12.2208C7.04769 12.2833 7.05116 12.3481 7.07079 12.4087C7.18749 12.7728 7.38234 13.1069 7.6417 13.3878C7.90106 13.6687 8.21867 13.8894 8.57229 14.0347C7.84601 14.389 7.03323 14.5272 6.23067 14.4327C6.14817 14.4243 6.06522 14.4435 5.9948 14.4873C5.92438 14.5311 5.87048 14.597 5.84154 14.6747C5.81375 14.753 5.81323 14.8384 5.84006 14.917C5.86689 14.9957 5.9195 15.0629 5.98936 15.1079C7.08042 15.8081 8.34972 16.1802 9.64617 16.1797C13.8949 16.1797 16.4345 12.7284 16.4345 9.392L16.4339 9.27925C16.8456 8.95778 17.2033 8.57249 17.4933 8.138C17.5372 8.07231 17.5588 7.99423 17.5549 7.91531C17.551 7.8364 17.5217 7.76084 17.4715 7.69983C17.4213 7.63883 17.3528 7.59561 17.2761 7.57658C17.1994 7.55755 17.1186 7.56372 17.0457 7.59418ZM15.846 8.80075C15.7962 8.83662 15.756 8.88442 15.7294 8.93979C15.7027 8.99515 15.6904 9.05631 15.6934 9.11769C15.6975 9.20844 15.6996 9.30056 15.6996 9.39131C15.6996 12.3668 13.4357 15.4447 9.64685 15.4447C8.97111 15.4451 8.30014 15.3316 7.66204 15.1092C8.42626 14.9628 9.14418 14.6351 9.75548 14.1536C9.81499 14.1067 9.85855 14.0426 9.88021 13.9699C9.90187 13.8973 9.90058 13.8198 9.8765 13.7479C9.85242 13.6761 9.80674 13.6134 9.7457 13.5685C9.68466 13.5236 9.61124 13.4987 9.53548 13.4971C9.23905 13.4914 8.94809 13.4162 8.68609 13.2774C8.42408 13.1386 8.19835 12.9402 8.0271 12.6982C8.20104 12.6865 8.37154 12.6576 8.53723 12.6129C8.61742 12.5915 8.68797 12.5435 8.73736 12.4768C8.78676 12.41 8.81209 12.3286 8.80922 12.2456C8.80635 12.1626 8.77544 12.0831 8.72155 12.02C8.66766 11.9568 8.59396 11.9138 8.51248 11.8979C8.17768 11.8298 7.8677 11.672 7.61569 11.4413C7.36369 11.2106 7.17914 10.9157 7.08179 10.5882C7.26467 10.6343 7.45235 10.6611 7.64004 10.6673C7.8016 10.6666 7.95148 10.5676 8.00167 10.4122C8.05185 10.2569 7.99273 10.0857 7.85592 9.99494C7.53243 9.77941 7.28336 9.46928 7.14271 9.1069C7.00207 8.74453 6.97671 8.34757 7.07011 7.97025C8.26431 9.19559 9.87686 9.92526 11.5856 10.0135C11.7066 10.0142 11.8125 9.97087 11.886 9.88219C11.9596 9.7935 11.9878 9.67594 11.9617 9.56319C11.8676 9.15825 11.9097 8.73361 12.0813 8.35498C12.253 7.97635 12.5446 7.66485 12.9111 7.46868C13.2776 7.2725 13.6986 7.2026 14.1088 7.26978C14.5191 7.33696 14.8957 7.53748 15.1805 7.84031C15.2232 7.88585 15.2768 7.91978 15.3362 7.9389C15.3956 7.95803 15.4589 7.96172 15.5202 7.94962C15.6336 7.92693 15.7457 7.90081 15.8564 7.87056C15.8065 7.90791 15.7546 7.94257 15.701 7.97437C15.6297 8.01804 15.5754 8.0847 15.5471 8.16335C15.5187 8.24201 15.518 8.32797 15.5451 8.40708C15.5722 8.48618 15.6254 8.5537 15.6959 8.59852C15.7665 8.64334 15.8503 8.66277 15.9334 8.65362L16.0585 8.63781C15.9896 8.69457 15.9187 8.74891 15.846 8.80075Z" fill="black" fill-opacity="0.8"/>
</g>
<defs>
<clipPath id="clip0">
<rect width="22" height="22" fill="white"/>
</clipPath>
</defs>
</svg>
