<svg width="64" height="64" viewBox="0 0 64 64" fill="none" xmlns="http://www.w3.org/2000/svg">
<circle cx="32" cy="32" r="32" fill="#F8F8F8"/>
<path d="M32 50L31.4 49.4949C18.5 38.8889 15 35.1515 15 29.0909C15 24.0404 19 20 24 20C28.1 20 30.4 22.3232 32 24.1414C33.6 22.3232 35.9 20 40 20C45 20 49 24.0404 49 29.0909C49 35.1515 45.5 38.8889 32.6 49.4949L32 50ZM24 22.0202C20.1 22.0202 17 25.1515 17 29.0909C17 34.2424 20.2 37.6768 32 47.3737C43.8 37.6768 47 34.2424 47 29.0909C47 25.1515 43.9 22.0202 40 22.0202C36.5 22.0202 34.6 24.1414 33.1 25.8586L32 27.1717L30.9 25.8586C29.4 24.1414 27.5 22.0202 24 22.0202Z" fill="#111111" fill-opacity="0.29"/>
</svg>
