<svg width="26" height="23" viewBox="0 0 26 23" fill="none" xmlns="http://www.w3.org/2000/svg">
<path d="M13 23L12.5412 22.6128C2.67647 14.4815 0 11.6162 0 6.9697C0 3.09764 3.05882 0 6.88235 0C10.0176 0 11.7765 1.78115 13 3.17508C14.2235 1.78115 15.9824 0 19.1176 0C22.9412 0 26 3.09764 26 6.9697C26 11.6162 23.3235 14.4815 13.4588 22.6128L13 23ZM6.88235 1.54882C3.9 1.54882 1.52941 3.94949 1.52941 6.9697C1.52941 10.9192 3.97647 13.5522 13 20.9865C22.0235 13.5522 24.4706 10.9192 24.4706 6.9697C24.4706 3.94949 22.1 1.54882 19.1176 1.54882C16.4412 1.54882 14.9882 3.17508 13.8412 4.49158L13 5.49832L12.1588 4.49158C11.0118 3.17508 9.55882 1.54882 6.88235 1.54882Z" fill="#111111" fill-opacity="0.99"/>
</svg>
