<svg width="28" height="28" viewBox="0 0 28 28" fill="none" xmlns="http://www.w3.org/2000/svg">
<path d="M24.7977 20.6312C24.6151 21.7814 23.5225 22.8254 22.3599 22.9587C16.8022 23.5643 11.1952 23.5642 5.63753 22.9584C4.4775 22.8254 3.38506 21.7816 3.20175 20.6287C2.52899 16.2344 2.5291 11.7632 3.20208 7.36889C3.38495 6.21848 4.4775 5.17461 5.63994 5.04139C8.41631 4.73864 11.2071 4.58704 13.9999 4.58726C16.7927 4.58711 19.5835 4.73878 22.3599 5.04161L22.3621 5.04182C23.5223 5.17461 24.615 6.21859 24.7982 7.37151C25.4709 11.7658 25.4707 16.237 24.7977 20.6313V20.6312ZM23.9337 7.50615C23.8126 6.7449 23.0328 6.00006 22.2642 5.91125C16.7714 5.31255 11.2299 5.31247 5.73717 5.91103C4.96816 5.99919 4.18733 6.74447 4.06669 7.50364C3.40751 11.8086 3.40736 16.1889 4.06625 20.4939C4.18733 21.2556 4.96816 22.0011 5.73488 22.0889C11.2278 22.6877 16.7696 22.6877 22.2625 22.0891C23.0318 22.001 23.8126 21.2556 23.9331 20.4964C24.5923 16.1914 24.5924 11.8112 23.9336 7.50615H23.9337ZM17.7426 14.3641L12.4926 17.8641C12.4267 17.908 12.3501 17.9332 12.2711 17.9371C12.192 17.9409 12.1133 17.9232 12.0435 17.8858C11.9737 17.8484 11.9153 17.7928 11.8746 17.7249C11.8339 17.657 11.8124 17.5793 11.8124 17.5001V10.5001C11.8124 10.4209 11.8339 10.3432 11.8746 10.2753C11.9153 10.2073 11.9737 10.1517 12.0435 10.1143C12.1133 10.077 12.192 10.0593 12.2711 10.0631C12.3501 10.0669 12.4267 10.0921 12.4926 10.1361L17.7426 13.6361C17.8025 13.676 17.8517 13.7302 17.8856 13.7937C17.9196 13.8572 17.9374 13.9281 17.9374 14.0001C17.9374 14.0721 17.9196 14.143 17.8856 14.2065C17.8517 14.27 17.8025 14.3241 17.7426 14.3641ZM12.6874 11.3175V16.6826L16.7113 14.0001L12.6874 11.3175Z" fill="black" fill-opacity="0.8"/>
</svg>
