<svg width="38" height="38" viewBox="0 0 38 38" fill="none" xmlns="http://www.w3.org/2000/svg">
<path d="M17.4796 27.3601C12.0076 27.3601 7.59961 22.9521 7.59961 17.4801C7.59961 12.0081 12.0076 7.6001 17.4796 7.6001C22.9516 7.6001 27.3596 12.0081 27.3596 17.4801C27.3596 22.9521 22.9516 27.3601 17.4796 27.3601ZM17.4796 9.1201C12.8436 9.1201 9.11961 12.8441 9.11961 17.4801C9.11961 22.1161 12.8436 25.8401 17.4796 25.8401C22.1156 25.8401 25.8396 22.1161 25.8396 17.4801C25.8396 12.8441 22.1156 9.1201 17.4796 9.1201Z" fill="#1D1D1D"/>
<path d="M24.8383 23.7629L31.6631 30.5877L30.5885 31.6624L23.7637 24.8376L24.8383 23.7629Z" fill="#1D1D1D"/>
</svg>
