<svg width="23" height="22" viewBox="0 0 23 22" fill="none" xmlns="http://www.w3.org/2000/svg">
<path d="M6.89993 19.8001L11.4999 9.5334L6.89993 19.8001ZM6.53807 13.9334C5.78232 13.1275 5.36504 12.0827 5.3666 11.0001V10.2667C5.3666 8.90529 5.93202 7.5996 6.93846 6.63692C7.94491 5.67423 9.30994 5.1334 10.7333 5.1334H12.2666C13.6899 5.1334 15.055 5.67423 16.0614 6.63692C17.0679 7.5996 17.6333 8.90529 17.6333 10.2667V11.0001C17.6333 12.167 17.1486 13.2862 16.286 14.1113C15.4233 14.9365 14.2533 15.4001 13.0333 15.4001C12.3636 15.4 11.7109 15.1984 11.1677 14.8238C10.6245 14.4492 10.2182 13.9207 10.0065 13.313L9.9666 13.2001L6.53807 13.9334ZM11.4999 21.2667C10.0904 21.2667 8.69469 21.0012 7.39247 20.4852C6.09024 19.9693 4.907 19.213 3.91032 18.2597C2.91364 17.3063 2.12303 16.1746 1.58363 14.929C1.04423 13.6833 0.766602 12.3483 0.766602 11.0001C0.766602 9.65183 1.04423 8.31679 1.58363 7.07118C2.12303 5.82557 2.91364 4.69378 3.91032 3.74044C4.907 2.78709 6.09024 2.03085 7.39247 1.5149C8.69469 0.998954 10.0904 0.733398 11.4999 0.733398C14.3466 0.733398 17.0767 1.81506 19.0895 3.74044C21.1024 5.66581 22.2333 8.27718 22.2333 11.0001C22.2333 13.723 21.1024 16.3343 19.0895 18.2597C17.0767 20.1851 14.3466 21.2667 11.4999 21.2667Z" stroke="black" stroke-opacity="0.8"/>
</svg>
